<svg width="24" height="24" viewBox="0 0 24 24" fill="none" xmlns="http://www.w3.org/2000/svg">
<path d="M18 11C18 7.13401 14.866 4 11 4C7.13401 4 4 7.13401 4 11C4 14.866 7.13401 18 11 18C14.866 18 18 14.866 18 11ZM20 11C20 15.9706 15.9706 20 11 20C6.02944 20 2 15.9706 2 11C2 6.02944 6.02944 2 11 2C15.9706 2 20 6.02944 20 11Z" fill="#E5E3DF"/>
<path d="M15.9428 15.9428C16.3333 15.5523 16.9663 15.5523 17.3569 15.9428L21.7065 20.2924C22.097 20.6829 22.097 21.3159 21.7065 21.7065C21.3159 22.097 20.6829 22.097 20.2924 21.7065L15.9428 17.3569C15.5523 16.9663 15.5523 16.3333 15.9428 15.9428Z" fill="#E5E3DF"/>
</svg>
